<svg width="42" height="42" viewBox="0 0 42 42" fill="none" xmlns="http://www.w3.org/2000/svg">
<rect x="0.5" y="0.5" width="41" height="41" rx="7.5" stroke="#ADADAD"/>
<rect width="13" height="9" transform="translate(15 17)" fill="white"/>
<path fill-rule="evenodd" clip-rule="evenodd" d="M21 30C22.1819 30 23.3522 29.7672 24.4442 29.3149C25.5361 28.8626 26.5282 28.1997 27.364 27.364C28.1997 26.5282 28.8626 25.5361 29.3149 24.4442C29.7672 23.3522 30 22.1819 30 21C30 19.8181 29.7672 18.6478 29.3149 17.5558C28.8626 16.4639 28.1997 15.4718 27.364 14.636C26.5282 13.8003 25.5361 13.1374 24.4442 12.6851C23.3522 12.2328 22.1819 12 21 12C18.6131 12 16.3239 12.9482 14.636 14.636C12.9482 16.3239 12 18.6131 12 21C12 23.3869 12.9482 25.6761 14.636 27.364C16.3239 29.0518 18.6131 30 21 30ZM20.768 24.64L25.768 18.64L24.232 17.36L19.932 22.519L17.707 20.293L16.293 21.707L19.293 24.707L20.067 25.481L20.768 24.64Z" fill="#27AE60"/>
</svg>
