<svg width="42" height="42" viewBox="0 0 42 42" fill="none" xmlns="http://www.w3.org/2000/svg">
<rect x="0.5" y="0.5" width="41" height="41" rx="7.5" stroke="#ADADAD"/>
<path fill-rule="evenodd" clip-rule="evenodd" d="M12.75 10.5684C12.5511 10.5684 12.3603 10.6474 12.2197 10.788C12.079 10.9287 12 11.1194 12 11.3184V27.6834C12 27.8823 12.079 28.073 12.2197 28.2137C12.3603 28.3543 12.5511 28.4334 12.75 28.4334H26.25C26.4489 28.4334 26.6397 28.3543 26.7803 28.2137C26.921 28.073 27 27.8823 27 27.6834V17.0469C27.0002 16.9462 26.9801 16.8464 26.9409 16.7537C26.9018 16.6609 26.8443 16.577 26.772 16.5069L20.8665 10.7829C20.7268 10.6467 20.5396 10.5703 20.3445 10.5699L12.75 10.5684ZM24.399 16.2969L21.0945 13.0914V16.2969H24.399ZM18 17.2509H15V15.7509H18V17.2509ZM24 21.0009H15V19.5009H24V21.0009ZM15 24.7509H24V23.2509H15V24.7509Z" fill="#E95D5D"/>
<path d="M28.5 20.25V30H15.75V31.5H29.25C29.4489 31.5 29.6397 31.421 29.7803 31.2803C29.921 31.1397 30 30.9489 30 30.75V20.25H28.5Z" fill="#E95D5D"/>
</svg>
