<svg width="42" height="42" viewBox="0 0 42 42" fill="none" xmlns="http://www.w3.org/2000/svg">
<rect x="0.5" y="0.5" width="41" height="41" rx="7.5" stroke="#ADADAD"/>
<path fill-rule="evenodd" clip-rule="evenodd" d="M21.0199 12C18.7614 12 16.7039 12.746 15.4864 13.3555C15.3764 13.4105 15.2737 13.4642 15.1784 13.5165C14.9894 13.6195 14.8284 13.7155 14.7004 13.8L16.0854 15.839L16.7374 16.0985C19.2854 17.384 22.7024 17.384 25.2509 16.0985L25.9909 15.7145L27.3004 13.8C27.0288 13.6236 26.7468 13.4638 26.4559 13.3215C25.2444 12.7185 23.2359 12 21.0204 12M17.7994 14.308C17.309 14.2157 16.8247 14.0942 16.3489 13.944C17.4894 13.4375 19.1889 12.9 21.0204 12.9C22.2889 12.9 23.4884 13.158 24.4804 13.485C23.3179 13.6485 22.0774 13.926 20.8954 14.2675C19.9654 14.5365 18.8784 14.5075 17.7994 14.308ZM25.7794 16.84L25.6564 16.902C22.8534 18.316 19.1354 18.316 16.3324 16.902L16.2159 16.843C12.0044 21.4635 8.78936 29.9985 21.0199 29.9985C33.2504 29.9985 29.9574 21.305 25.7794 16.84ZM20.5004 21C20.2351 21 19.9808 21.1054 19.7933 21.2929C19.6057 21.4804 19.5004 21.7348 19.5004 22C19.5004 22.2652 19.6057 22.5196 19.7933 22.7071C19.9808 22.8946 20.2351 23 20.5004 23V21ZM21.5004 20V19.5H20.5004V20C19.9699 20 19.4612 20.2107 19.0861 20.5858C18.7111 20.9609 18.5004 21.4696 18.5004 22C18.5004 22.5304 18.7111 23.0391 19.0861 23.4142C19.4612 23.7893 19.9699 24 20.5004 24V26C20.0654 26 19.6949 25.7225 19.5569 25.3335C19.5364 25.2699 19.5034 25.211 19.4597 25.1603C19.4161 25.1097 19.3627 25.0683 19.3028 25.0386C19.2429 25.0089 19.1777 24.9916 19.1109 24.9875C19.0442 24.9835 18.9774 24.9929 18.9143 25.0152C18.8513 25.0375 18.7934 25.0721 18.744 25.1172C18.6946 25.1622 18.6547 25.2167 18.6267 25.2775C18.5988 25.3382 18.5833 25.4039 18.5811 25.4707C18.579 25.5376 18.5903 25.6041 18.6144 25.6665C18.7522 26.0565 19.0076 26.3942 19.3454 26.633C19.6832 26.8719 20.0867 27.0001 20.5004 27V27.5H21.5004V27C22.0308 27 22.5395 26.7893 22.9146 26.4142C23.2896 26.0391 23.5004 25.5304 23.5004 25C23.5004 24.4696 23.2896 23.9609 22.9146 23.5858C22.5395 23.2107 22.0308 23 21.5004 23V21C21.9354 21 22.3059 21.2775 22.4439 21.6665C22.4643 21.7301 22.4974 21.789 22.541 21.8397C22.5846 21.8903 22.638 21.9317 22.6979 21.9614C22.7578 21.9911 22.823 22.0084 22.8898 22.0125C22.9565 22.0165 23.0234 22.0071 23.0864 21.9848C23.1494 21.9625 23.2074 21.9279 23.2568 21.8828C23.3062 21.8378 23.346 21.7833 23.374 21.7225C23.402 21.6618 23.4175 21.5961 23.4196 21.5293C23.4217 21.4624 23.4104 21.3959 23.3864 21.3335C23.2485 20.9435 22.9931 20.6058 22.6553 20.367C22.3175 20.1281 21.914 19.9999 21.5004 20ZM21.5004 24V26C21.7656 26 22.0199 25.8946 22.2075 25.7071C22.395 25.5196 22.5004 25.2652 22.5004 25C22.5004 24.7348 22.395 24.4804 22.2075 24.2929C22.0199 24.1054 21.7656 24 21.5004 24Z" fill="#27AE60"/>
</svg>
