<svg width="42" height="42" viewBox="0 0 42 42" fill="none" xmlns="http://www.w3.org/2000/svg">
<rect width="42" height="42" rx="8" fill="#E95D5D"/>
<path d="M21.0012 21C21.9958 21 22.9496 20.6049 23.6529 19.9017C24.3561 19.1984 24.7512 18.2446 24.7512 17.25C24.7512 16.2554 24.3561 15.3016 23.6529 14.5983C22.9496 13.8951 21.9958 13.5 21.0012 13.5C20.0067 13.5 19.0528 13.8951 18.3496 14.5983C17.6463 15.3016 17.2512 16.2554 17.2512 17.25C17.2512 18.2446 17.6463 19.1984 18.3496 19.9017C19.0528 20.6049 20.0067 21 21.0012 21ZM13.7352 26.6445C13.9752 25.701 14.3952 24.8295 14.9547 24.0645C14.141 23.9089 13.2985 24.0271 12.5591 24.4008C11.8196 24.7745 11.2247 25.3825 10.8672 26.13C10.6632 26.5605 11.0202 27 11.4942 27H13.6677C13.6827 26.884 13.7052 26.7655 13.7352 26.6445ZM28.2717 26.6445C28.3017 26.7645 28.3247 26.883 28.3407 27H30.5097C30.9837 27 31.3407 26.5605 31.1352 26.1315C30.7782 25.3846 30.1842 24.7769 29.4456 24.403C28.707 24.0291 27.8655 23.9101 27.0522 24.0645C27.6132 24.8295 28.0317 25.6995 28.2717 26.6445ZM30.0012 20.25C30.0012 20.5455 29.943 20.8381 29.83 21.111C29.7169 21.384 29.5512 21.6321 29.3422 21.841C29.1333 22.0499 28.8853 22.2157 28.6123 22.3287C28.3393 22.4418 28.0467 22.5 27.7512 22.5C27.4558 22.5 27.1632 22.4418 26.8902 22.3287C26.6172 22.2157 26.3692 22.0499 26.1602 21.841C25.9513 21.6321 25.7856 21.384 25.6725 21.111C25.5594 20.8381 25.5012 20.5455 25.5012 20.25C25.5012 19.6533 25.7383 19.081 26.1602 18.659C26.5822 18.2371 27.1545 18 27.7512 18C28.348 18 28.9203 18.2371 29.3422 18.659C29.7642 19.081 30.0012 19.6533 30.0012 20.25ZM14.2512 22.5C14.848 22.5 15.4203 22.2629 15.8422 21.841C16.2642 21.419 16.5012 20.8467 16.5012 20.25C16.5012 19.6533 16.2642 19.081 15.8422 18.659C15.4203 18.2371 14.848 18 14.2512 18C13.6545 18 13.0822 18.2371 12.6602 18.659C12.2383 19.081 12.0012 19.6533 12.0012 20.25C12.0012 20.8467 12.2383 21.419 12.6602 21.841C13.0822 22.2629 13.6545 22.5 14.2512 22.5ZM16.5012 28.5C15.6732 28.5 14.9817 27.8175 15.1872 27.015C15.5183 25.7243 16.2694 24.5805 17.3222 23.7637C18.3749 22.9469 19.6695 22.5035 21.002 22.5035C22.3345 22.5035 23.6291 22.9469 24.6818 23.7637C25.7346 24.5805 26.4857 25.7243 26.8167 27.015C27.0207 27.8175 26.3307 28.5 25.5012 28.5H16.5012Z" fill="white"/>
</svg>
